HIERARCHY
ROOT Hips
{
	OFFSET -0.179506 -22.333345 2.821913
	CHANNELS 6 Xposition Yposition Zposition Zrotation Yrotation Xrotation 
	JOINT LeftUpLeg
	{
		OFFSET 6.951974 -9.140623 -0.681533
		CHANNELS 3 Zrotation Yrotation Xrotation
		JOINT LeftLeg
		{
			OFFSET 3.427654 -37.519855 -0.449580
			CHANNELS 3 Zrotation Yrotation Xrotation
			JOINT LeftFoot
			{
				OFFSET -1.359570 -39.796059 -4.369333
				CHANNELS 3 Zrotation Yrotation Xrotation
				JOINT LeftToe
				{
					OFFSET 2.635814 -5.579078 11.928840
					CHANNELS 3 Zrotation Yrotation Xrotation
					End Site
					{
						OFFSET 0.000000 0.000000 0.000000
					}
				}
			}
		}
	}
	JOINT RightUpLeg
	{
		OFFSET -6.767048 -9.052170 -0.431982
		CHANNELS 3 Zrotation Yrotation Xrotation
		JOINT RightLeg
		{
			OFFSET -3.829005 -38.256897 -0.885003
			CHANNELS 3 Zrotation Yrotation Xrotation
			JOINT RightFoot
			{
				OFFSET 1.577377 -39.841461 -4.231180
				CHANNELS 3 Zrotation Yrotation Xrotation
				JOINT RightToe
				{
					OFFSET -2.537174 -4.814398 12.334795
					CHANNELS 3 Zrotation Yrotation Xrotation
					End Site
					{
						OFFSET 0.000000 0.000000 0.000000
					}
				}
			}
		}
	}
	JOINT Spine
	{
		OFFSET -0.253288 10.896323 -2.669631
		CHANNELS 3 Zrotation Yrotation Xrotation
		JOINT Spine1
		{
			OFFSET 0.548704 13.518043 0.109247
			CHANNELS 3 Zrotation Yrotation Xrotation
			JOINT Spine2
			{
				OFFSET 0.145701 5.292222 2.542457
				CHANNELS 3 Zrotation Yrotation Xrotation
				JOINT Neck
				{
					OFFSET -0.277840 21.387037 -4.285703
					CHANNELS 3 Zrotation Yrotation Xrotation
					JOINT Head
					{
						OFFSET 0.515184 6.496960 5.134897
						CHANNELS 3 Zrotation Yrotation Xrotation
						End Site
						{
							OFFSET 0.000000 0.000000 0.000000
						}
					}
				}
				JOINT LeftShoulder
				{
					OFFSET 7.884473 12.174932 -3.408961
					CHANNELS 3 Zrotation Yrotation Xrotation
					JOINT LeftArm
					{
						OFFSET 9.097692 3.046888 -0.886815
						CHANNELS 3 Zrotation Yrotation Xrotation
						JOINT LeftForeArm
						{
							OFFSET 25.961220 -1.277207 -2.745643
							CHANNELS 3 Zrotation Yrotation Xrotation
							JOINT LeftHand
							{
								OFFSET 24.923361 0.898606 -0.117091
								CHANNELS 3 Zrotation Yrotation Xrotation
								End Site
								{
									OFFSET 0.000000 0.000000 0.000000
								}
							}
						}
					}
				}
				JOINT RightShoulder
				{
					OFFSET -8.175920 11.883285 -3.861528
					CHANNELS 3 Zrotation Yrotation Xrotation
					JOINT RightArm
					{
						OFFSET -9.601238 3.255117 -0.914307
						CHANNELS 3 Zrotation Yrotation Xrotation
						JOINT RightForeArm
						{
							OFFSET -25.374195 -1.332924 -2.140099
							CHANNELS 3 Zrotation Yrotation Xrotation
							JOINT RightHand
							{
								OFFSET -25.529810 0.777228 -0.555919
								CHANNELS 3 Zrotation Yrotation Xrotation
								End Site
								{
									OFFSET 0.000000 0.000000 0.000000
								}
							}
						}
					}
				}
			}
		}
	}
}
MOTION
Frames: 9
Frame Time: 0.033333
-107.785797 -23.175171 93.222298 146.756927 1.494541 80.208726 17.011583 9.334617 -10.963959 -0.689808 10.715494 22.150594 -8.426233 -2.821871 -5.015369 nan nan nan -10.767583 -6.268221 11.545922 -0.600392 -2.997714 15.836296 -1.620697 3.541152 -26.471533 nan nan nan 4.389356 1.763213 10.370611 1.853034 -4.273659 9.035526 1.306576 -0.312372 -7.520581 -3.123738 15.244738 17.819839 -4.290289 21.054576 23.795262 -17.700718 -15.825190 5.303463 -47.143500 -19.088271 -6.078110 109.646066 -54.431337 -82.075379 10.679368 -34.153099 -27.475257 9.192080 22.405163 2.397668 68.186561 26.239649 21.710003 -160.720501 73.931641 -136.615833 2.226648 28.436143 -35.941511 
-107.776146 -23.177858 93.217705 146.895470 1.561351 80.113468 17.099283 9.245576 -10.897947 -0.749154 10.627081 22.132446 -8.542973 -2.738763 -5.015727 nan nan nan -10.684287 -6.349581 11.730317 -0.637954 -3.024865 15.744711 -1.548587 3.517462 -26.473377 nan nan nan 4.457766 1.690803 10.495601 1.783566 -4.291282 8.759884 1.367259 -0.318262 -7.281498 -3.148421 15.245389 17.654928 -4.143347 21.247814 24.038565 -17.677155 -15.907824 5.351893 -47.212053 -19.029289 -6.097656 109.549872 -54.377399 -81.881121 10.760371 -34.171467 -27.736268 9.221138 22.521185 2.463186 68.092044 26.234010 21.588575 -160.815694 73.924355 -136.715587 2.129628 28.502406 -36.065005 
-107.770523 -23.174768 93.216553 147.009385 1.619487 80.007354 17.155522 9.197278 -10.805053 -0.798299 10.525177 22.077594 -8.608724 -2.714356 -4.956471 nan nan nan -10.626644 -6.395504 11.879131 -0.667363 -3.065607 15.749162 -1.475904 3.488847 -26.505016 nan nan nan 4.489446 1.702807 10.662102 1.766184 -4.235129 8.552087 1.459725 -0.400000 -7.133476 -3.177827 14.989821 17.558479 -4.109968 21.197081 24.191293 -17.661491 -15.954928 5.385648 -47.371270 -19.066937 -6.009438 109.510154 -54.340729 -81.769839 10.977976 -34.076949 -27.825420 9.151670 22.543134 2.354797 67.994914 26.105954 21.509869 -161.172443 73.896649 -137.172613 1.988096 28.563269 -36.246261 
-107.768158 -23.169489 93.224342 147.112683 1.658042 79.908564 17.182077 9.184102 -10.730230 -0.815501 10.432396 22.057918 -8.642154 -2.780457 -4.949023 nan nan nan -10.595100 -6.432486 12.008614 -0.685603 -3.055382 15.824949 -1.435560 3.512480 -26.503679 nan nan nan 4.521636 1.714299 10.768737 1.780223 -4.222447 8.512390 1.501848 -0.435288 -7.073451 -3.154696 14.836385 17.570153 -4.163154 21.112969 24.156483 -17.664578 -15.953079 5.348544 -47.516092 -19.135754 -5.904688 109.493232 -54.366755 -81.734960 11.171792 -33.984400 -27.673091 9.081515 22.540707 2.236094 67.922734 26.026018 21.489181 -161.423743 73.896806 -137.484675 1.735727 28.524752 -36.061940 
-107.764008 -23.171171 93.224213 147.214549 1.647641 79.905938 17.151034 9.121688 -10.741413 -0.845128 10.375871 22.008591 -8.624204 -2.762117 -4.911296 nan nan nan -10.584377 -6.422747 12.021905 -0.683978 -3.078377 15.884927 -1.443373 3.425692 -26.556908 nan nan nan 4.566166 1.727696 10.765852 1.750365 -4.232286 8.449615 1.473658 -0.486048 -7.026937 -3.116454 14.802188 17.616770 -4.182417 21.112185 24.099738 -17.658780 -15.937891 5.375989 -47.571911 -19.154698 -5.857234 109.543291 -54.409149 -81.843175 11.360306 -33.868959 -27.744074 9.094448 22.547129 2.263977 67.944919 26.018832 21.533599 -161.407828 73.909834 -137.413054 1.513240 28.349202 -35.561323 
-107.753197 -23.169292 93.215736 147.275349 1.642435 79.897071 17.124701 9.115531 -10.748371 -0.847640 10.312204 21.992234 -8.623991 -2.758716 -4.893034 nan nan nan -10.589049 -6.459170 12.033730 -0.702639 -3.123516 15.910723 -1.433246 3.430739 -26.568767 nan nan nan 4.589901 1.747440 10.753221 1.735471 -4.244050 8.377384 1.460825 -0.524323 -6.939492 -3.076320 14.797816 17.608440 -4.207463 21.077827 24.095390 -17.641411 -15.926750 5.382157 -47.648000 -19.162008 -5.790330 109.551602 -54.406821 -81.898329 11.469652 -33.853255 -27.853845 9.124919 22.536481 2.241861 67.923678 26.047925 21.565963 -161.451819 73.981264 -137.475809 1.503411 28.283228 -35.242676 
-107.751183 -23.176390 93.212334 147.331778 1.628691 79.874034 17.092621 9.069016 -10.738427 -0.841825 10.269149 21.968715 -8.682697 -2.750220 -4.886072 nan nan nan -10.597551 -6.464226 12.054450 -0.722624 -3.169943 15.938492 -1.402495 3.470444 -26.597486 nan nan nan 4.602894 1.724512 10.776628 1.706814 -4.265640 8.346828 1.439857 -0.510837 -6.904523 -3.028599 14.833052 17.579739 -4.179108 21.077026 24.120026 -17.655688 -15.910401 5.356828 -47.631320 -19.117113 -5.788849 109.593111 -54.411404 -81.930792 11.352400 -33.876920 -27.712657 9.114905 22.539240 2.215239 67.926551 26.065502 21.572588 -161.470732 74.049630 -137.471558 1.576146 28.275014 -35.058678 
-107.747147 -23.176426 93.205894 147.371095 1.618587 79.840805 17.115855 9.076913 -10.717147 -0.899149 10.247661 21.988960 -8.688823 -2.802729 -4.929535 nan nan nan -10.616946 -6.504653 12.093373 -0.737509 -3.169915 15.955313 -1.420070 3.464550 -26.656329 nan nan nan 4.596981 1.717241 10.803182 1.705835 -4.277123 8.343205 1.447995 -0.495165 -6.894429 -3.016910 14.874742 17.541681 -4.154607 21.090058 24.168770 -17.650159 -15.858616 5.319372 -47.673681 -19.093729 -5.814433 109.640388 -54.494065 -81.895380 11.152542 -33.872806 -27.386030 9.108211 22.535972 2.213657 67.910587 26.085449 21.564762 -161.657148 74.104011 -137.570249 1.847105 28.319020 -34.864320 
-107.748238 -23.175484 93.198677 147.415415 1.591115 79.867290 17.133965 9.081957 -10.734924 -1.007966 10.275016 21.968207 -8.658119 -2.841943 -4.920273 nan nan nan -10.632553 -6.513028 12.054215 -0.730514 -3.113432 16.005829 -1.438251 3.387397 -26.737065 nan nan nan 4.550011 1.736847 10.739716 1.729548 -4.261695 8.391569 1.460080 -0.503213 -6.932281 -3.042313 14.837101 17.509107 -4.129258 21.142492 24.199824 -17.687684 -15.842222 5.350727 -47.693742 -19.084585 -5.773632 109.709962 -54.510934 -81.978422 11.234960 -33.796127 -27.299513 9.109475 22.525422 2.213717 67.904664 26.049781 21.590724 -161.626011 74.109463 -137.486266 2.359044 28.407481 -34.648597 
